<svg xmlns="http://www.w3.org/2000/svg" viewBox="0 0 100 100" fill="none"><defs><linearGradient id="g" x1="8" y1="8" x2="92" y2="92"><stop stop-color="#fb7185"/><stop offset=".55" stop-color="#0ea5e9"/><stop offset="1" stop-color="#082f49"/></linearGradient></defs><rect x="3" y="3" width="94" height="94" rx="25" fill="url(#g)" stroke="#fff" stroke-opacity=".35"/><path d="M14 17c18-12 54-11 72 5-18 12-50 15-70 6-4-2-5-7-2-11Z" fill="#fff" opacity=".2"/><g stroke="#fff" stroke-width="4" stroke-linecap="round" stroke-linejoin="round"><path d="M23 50h13l7-16 9 32 8-20h17"/><path d="M50 77C35 67 21 56 21 39c0-11 9-18 19-14 5 2 8 5 10 9 2-4 5-7 10-9 10-4 19 3 19 14 0 17-14 28-29 38Z"/><path d="M74 22v14M67 29h14"/></g></svg>