<svg xmlns="http://www.w3.org/2000/svg" viewBox="0 0 100 100" fill="none"><defs><linearGradient id="g" x1="8" y1="8" x2="92" y2="92"><stop stop-color="#4ade80"/><stop offset=".55" stop-color="#a16207"/><stop offset="1" stop-color="#422006"/></linearGradient></defs><rect x="3" y="3" width="94" height="94" rx="25" fill="url(#g)" stroke="#fff" stroke-opacity=".35"/><path d="M14 17c18-12 54-11 72 5-18 12-50 15-70 6-4-2-5-7-2-11Z" fill="#fff" opacity=".2"/><g stroke="#fff" stroke-width="4" stroke-linecap="round" stroke-linejoin="round"><path d="M27 55c0-13 11-22 27-21 10 0 18 4 23 10l9-3v16l-8 1c-3 8-12 14-24 15H36c-7-4-10-10-9-18Z"/><circle cx="63" cy="45" r="2" fill="#fff"/><path d="M40 73v7M69 71v9"/><circle cx="31" cy="29" r="10" stroke="#ffe38a"/><path d="M31 23v12" stroke="#ffe38a"/></g></svg>