<svg xmlns="http://www.w3.org/2000/svg" viewBox="0 0 100 100" fill="none"><defs><linearGradient id="g" x1="8" y1="8" x2="92" y2="92"><stop stop-color="#34d399"/><stop offset=".55" stop-color="#0f766e"/><stop offset="1" stop-color="#022c22"/></linearGradient></defs><rect x="3" y="3" width="94" height="94" rx="25" fill="url(#g)" stroke="#fff" stroke-opacity=".35"/><path d="M14 17c18-12 54-11 72 5-18 12-50 15-70 6-4-2-5-7-2-11Z" fill="#fff" opacity=".2"/><g stroke="#fff" stroke-width="4" stroke-linecap="round" stroke-linejoin="round"><path d="M50 20 75 29v20c0 17-11 28-25 35-14-7-25-18-25-35V29Z"/><rect x="39" y="45" width="22" height="19" rx="4"/><path d="M44 45v-6c0-6 2-9 6-9s6 3 6 9v6M50 52v5"/></g></svg>